<svg width="13" height="12" viewBox="0 0 13 12" fill="none" xmlns="http://www.w3.org/2000/svg">
<path d="M1.13888 8.16723C0.740298 8.39735 0.603736 8.907 0.833854 9.30558C1.06397 9.70416 1.57363 9.84072 1.97221 9.6106L1.13888 8.16723ZM11.983 3.54904C12.1021 3.10449 11.8383 2.64754 11.3937 2.52842L4.14929 0.587279C3.70473 0.468161 3.24778 0.73198 3.12866 1.17653C3.00955 1.62109 3.27337 2.07804 3.71792 2.19716L10.1574 3.92262L8.43197 10.3621C8.31285 10.8067 8.57667 11.2636 9.02122 11.3827C9.46578 11.5019 9.92272 11.238 10.0418 10.7935L11.983 3.54904ZM1.97221 9.6106L11.5947 4.05505L10.7614 2.61167L1.13888 8.16723L1.97221 9.6106Z" fill="#B9FF66"/>
</svg>
