<svg width="12" height="12" viewBox="0 0 12 12" fill="none" xmlns="http://www.w3.org/2000/svg">
<path d="M0.583333 8.50053C0.184756 8.73064 0.0481936 9.2403 0.278312 9.63888C0.508431 10.0375 1.01809 10.174 1.41667 9.9439L0.583333 8.50053ZM11.4274 3.88234C11.5466 3.43779 11.2827 2.98084 10.8382 2.86172L3.59374 0.920578C3.14919 0.80146 2.69224 1.06528 2.57312 1.50983C2.454 1.95439 2.71782 2.41134 3.16238 2.53045L9.60188 4.25591L7.87642 10.6954C7.75731 11.14 8.02112 11.5969 8.46568 11.716C8.91023 11.8352 9.36718 11.5713 9.4863 11.1268L11.4274 3.88234ZM1.41667 9.9439L11.0392 4.38835L10.2058 2.94497L0.583333 8.50053L1.41667 9.9439Z" fill="black"/>
</svg>
