<svg width="72" height="28" viewBox="0 0 72 28" fill="none" xmlns="http://www.w3.org/2000/svg">
<g style="mix-blend-mode:luminosity" clip-path="url(#clip0_0_1037)">
<path d="M7.98931 7.72565V12.7744H2.7577V7.72565H0.273926V19.7775H2.7577V14.8927H7.98931V19.7775H10.4731V7.72565H7.98931Z" fill="#33475B"/>
<path d="M18.4221 15.8815C18.4221 16.3645 18.2056 16.8277 17.8203 17.1692C17.4349 17.5107 16.9123 17.7026 16.3673 17.7026C15.8223 17.7026 15.2997 17.5107 14.9143 17.1692C14.529 16.8277 14.3125 16.3645 14.3125 15.8815V10.7195H11.9565V15.8815C11.9565 16.9173 12.4208 17.9106 13.2472 18.643C14.0735 19.3755 15.1944 19.7869 16.3631 19.7869C17.5317 19.7869 18.6526 19.3755 19.4789 18.643C20.3053 17.9106 20.7696 16.9173 20.7696 15.8815V10.7195H18.4221V15.8815Z" fill="#33475B"/>
<path d="M35.8784 11.2515C35.8784 10.1934 36.6682 9.85797 37.5335 9.85797C38.2308 9.85797 39.152 10.3282 39.7544 10.8988L41.2975 9.28741C40.5271 8.36417 38.9646 7.72566 37.6856 7.72566C35.13 7.72566 33.2815 9.05229 33.2815 11.2515C33.2815 15.3317 38.9086 14.0374 38.9086 16.3207C38.9086 17.025 38.1371 17.6473 37.2536 17.6473C35.8602 17.6473 35.4087 17.0433 34.7686 16.4048L33.0563 17.9828C34.1516 19.1746 35.5024 19.7796 37.1209 19.7796C39.5487 19.7796 41.5019 18.4368 41.5019 16.338C41.5019 11.808 35.8748 13.2155 35.8748 11.2515" fill="#33475B"/>
<path d="M70.6902 17.8521C69.298 17.8521 68.9025 17.3182 68.9025 16.5007V12.8821H71.0663V11.0486H68.9025V8.62935L66.5137 9.57956V16.9504C66.5137 18.8358 67.9813 19.786 69.9941 19.786C70.3098 19.7911 70.6253 19.7687 70.936 19.7191L71.519 17.8176C71.2561 17.8338 70.9543 17.85 70.6902 17.85" fill="#33475B"/>
<path d="M27.3903 10.7803C26.2233 10.7803 25.4091 11.0802 24.6218 11.7651V7.79811H22.2621V15.1507C22.2621 17.9031 24.5074 19.7885 27.0301 19.7885C29.8291 19.7885 32.2909 17.8697 32.2909 15.2855C32.2909 12.7336 30.025 10.7814 27.3903 10.7814V10.7803ZM27.3757 17.6842C26.8462 17.6842 26.3286 17.545 25.8883 17.2843C25.448 17.0236 25.1049 16.653 24.9022 16.2194C24.6996 15.7858 24.6466 15.3087 24.7499 14.8484C24.8532 14.3882 25.1082 13.9654 25.4826 13.6335C25.857 13.3017 26.3341 13.0757 26.8534 12.9841C27.3727 12.8926 27.911 12.9396 28.4002 13.1192C28.8895 13.2987 29.3076 13.6029 29.6018 13.9931C29.8959 14.3833 30.053 14.8421 30.053 15.3114C30.053 15.9407 29.7709 16.5442 29.2688 16.9892C28.7667 17.4342 28.0858 17.6842 27.3757 17.6842Z" fill="#33475B"/>
<path d="M53.0116 15.175C53.0116 12.5865 50.5546 10.672 47.7508 10.672C45.2281 10.672 42.9828 12.5573 42.9828 15.3098V22.6667H45.3425V18.6943C46.1286 19.3781 46.944 19.6791 48.1098 19.6791C50.7444 19.6791 53.0104 17.728 53.0104 15.175H53.0116ZM50.7773 15.1491C50.7773 15.6184 50.6203 16.0772 50.3261 16.4674C50.0319 16.8576 49.6138 17.1617 49.1246 17.3413C48.6354 17.5209 48.0971 17.5679 47.5777 17.4764C47.0584 17.3848 46.5814 17.1588 46.2069 16.827C45.8325 16.4951 45.5775 16.0723 45.4742 15.612C45.3709 15.1517 45.4239 14.6746 45.6266 14.2411C45.8292 13.8075 46.1724 13.4369 46.6126 13.1762C47.0529 12.9154 47.5705 12.7763 48.1 12.7763C48.8101 12.7763 49.4911 13.0263 49.9931 13.4713C50.4952 13.9163 50.7773 14.5198 50.7773 15.1491Z" fill="#33475B"/>
<path d="M60.6108 10.6387V8.55923C60.9209 8.43087 61.1834 8.22708 61.3678 7.97159C61.5522 7.71609 61.651 7.41942 61.6525 7.11611V7.06758C61.6512 6.64371 61.4606 6.23753 61.1225 5.93781C60.7843 5.63809 60.326 5.46921 59.8478 5.46807H59.793C59.3148 5.46921 58.8565 5.63809 58.5183 5.93781C58.1801 6.23753 57.9896 6.64371 57.9883 7.06758V7.11611C57.9898 7.41942 58.0885 7.71609 58.2729 7.97159C58.4574 8.22708 58.7199 8.43087 59.03 8.55923V10.6387C58.1385 10.7595 57.2989 11.0869 56.5961 11.5878L50.1536 7.14523C50.1995 6.99868 50.224 6.84754 50.2267 6.69547C50.2271 6.33859 50.1082 5.9896 49.8849 5.69262C49.6616 5.39565 49.3439 5.16403 48.9721 5.02707C48.6003 4.8901 48.1909 4.85393 47.7959 4.92314C47.4009 4.99234 47.0379 5.16382 46.7528 5.41587C46.4677 5.66792 46.2734 5.98923 46.1944 6.33917C46.1154 6.68912 46.1552 7.05197 46.3088 7.38185C46.4625 7.71173 46.7231 7.99382 47.0576 8.19245C47.3921 8.39108 47.7856 8.49732 48.1883 8.49775C48.542 8.49658 48.8891 8.41288 49.1947 8.25507L55.5289 12.6254C54.9583 13.3883 54.6607 14.2859 54.6748 15.201C54.6889 16.1162 55.0141 17.0063 55.608 17.755L53.6803 19.4635C53.5256 19.4198 53.3644 19.3965 53.2021 19.3944C52.8711 19.3944 52.5476 19.4814 52.2724 19.6444C51.9973 19.8073 51.7828 20.0389 51.6562 20.3099C51.5295 20.5809 51.4964 20.8791 51.5609 21.1668C51.6255 21.4545 51.7849 21.7187 52.0189 21.9261C52.2529 22.1335 52.551 22.2748 52.8756 22.332C53.2002 22.3892 53.5367 22.3598 53.8424 22.2476C54.1482 22.1353 54.4095 21.9453 54.5934 21.7014C54.7772 21.4575 54.8754 21.1708 54.8754 20.8775C54.8731 20.7335 54.8469 20.5907 54.7975 20.4536L56.7044 18.7635C57.3269 19.1849 58.0498 19.4747 58.8179 19.6107C59.586 19.7467 60.379 19.7254 61.1365 19.5484C61.8939 19.3714 62.5956 19.0433 63.1882 18.5893C63.7807 18.1352 64.2483 17.5672 64.5554 16.9285C64.8625 16.2899 65.0008 15.5975 64.9599 14.9042C64.919 14.2109 64.6999 13.535 64.3194 12.9283C63.9388 12.3215 63.4069 11.7997 62.7642 11.4029C62.1214 11.0061 61.3849 10.7447 60.6108 10.6387V10.6387ZM59.821 17.4789C59.2992 17.4789 58.7891 17.3418 58.3552 17.0848C57.9213 16.8279 57.5832 16.4627 57.3835 16.0354C57.1838 15.6082 57.1316 15.138 57.2334 14.6844C57.3352 14.2308 57.5864 13.8142 57.9554 13.4872C58.3244 13.1601 58.7945 12.9374 59.3063 12.8472C59.8181 12.757 60.3485 12.8033 60.8306 12.9803C61.3127 13.1573 61.7248 13.457 62.0147 13.8415C62.3046 14.226 62.4593 14.6781 62.4593 15.1406C62.4593 15.7608 62.1813 16.3555 61.6866 16.794C61.1918 17.2326 60.5207 17.4789 59.821 17.4789" fill="#FF7A59"/>
</g>
<defs>
<clipPath id="clip0_0_1037">
<rect width="71.4589" height="26.6667" fill="white" transform="translate(0.273926 0.444427)"/>
</clipPath>
</defs>
</svg>
