<svg width="81" height="28" viewBox="0 0 81 28" fill="none" xmlns="http://www.w3.org/2000/svg">
<g style="mix-blend-mode:luminosity" clip-path="url(#clip0_0_1038)">
<path d="M28.1807 19.7638V11.6777H28.3432L34.9843 19.7638H37.0741V7.88924H34.7521V15.955H34.5895L27.9485 7.88924H25.8586V19.7638H28.1807ZM43.6455 19.9472C46.7107 19.9472 48.5915 18.1955 48.5915 15.2625C48.5915 12.3499 46.7107 10.5778 43.6455 10.5778C40.6037 10.5778 38.6996 12.3499 38.6996 15.2625C38.7228 18.1955 40.5804 19.9472 43.6455 19.9472ZM43.6455 18.2362C42.0201 18.2362 41.0913 17.1567 41.0913 15.2625C41.0913 13.3886 42.0201 12.2887 43.6455 12.2887C45.271 12.2887 46.1998 13.3886 46.1998 15.2625C46.1998 17.1567 45.271 18.2362 43.6455 18.2362ZM50.7046 8.56139V10.8222H49.0792V12.4517H50.7046V17.3604C50.7046 19.1121 51.6334 19.8046 54.0019 19.8046C54.4431 19.8046 54.8843 19.7638 55.2326 19.7027V18.114C54.954 18.1344 54.7682 18.1548 54.4431 18.1548C53.4678 18.1548 53.0267 17.7678 53.0267 16.8716V12.4517H55.2326V10.8222H53.0267V8.56139H50.7046ZM56.6259 19.7638H58.9479V10.7611H56.6259V19.7638ZM57.7869 9.27427C58.5532 9.27427 59.1801 8.72433 59.1801 8.05218C59.1801 7.35967 58.5532 6.80973 57.7869 6.80973C57.0206 6.80973 56.3936 7.35967 56.3936 8.05218C56.3936 8.72433 57.0206 9.27427 57.7869 9.27427ZM65.3103 19.9472C68.3755 19.9472 70.2563 18.1955 70.2563 15.2625C70.2563 12.3499 68.3755 10.5778 65.3103 10.5778C62.2684 10.5778 60.3644 12.3499 60.3644 15.2625C60.3644 18.1955 62.222 19.9472 65.3103 19.9472ZM65.3103 18.2362C63.6849 18.2362 62.7561 17.1567 62.7561 15.2625C62.7561 13.3886 63.6849 12.2887 65.3103 12.2887C66.9126 12.2887 67.8646 13.3886 67.8646 15.2625C67.8414 17.1567 66.9126 18.2362 65.3103 18.2362ZM71.6263 19.7638H73.9484V14.5292C73.9484 13.2053 74.8308 12.3702 76.2008 12.3702C77.6172 12.3702 78.2674 13.0627 78.2674 14.4274V19.7638H80.5895V13.9386C80.5895 11.7795 79.3356 10.5778 77.0599 10.5778C75.5274 10.5778 74.5057 11.1889 74.018 12.2073H73.8555V10.7611H71.6031C71.6263 10.7611 71.6263 19.7638 71.6263 19.7638Z" fill="black"/>
<path fill-rule="evenodd" clip-rule="evenodd" d="M3.59405 7.12921C4.26989 7.61243 4.51434 7.57428 5.77974 7.49798L17.7004 6.86217C17.9592 6.86217 17.7435 6.63327 17.6572 6.60784L15.6729 5.34892C15.299 5.09459 14.7813 4.7894 13.8179 4.8657L2.28551 5.61596C1.86851 5.65411 1.78223 5.84486 1.95479 5.98474L3.59405 7.12921ZM4.31303 9.58347V20.6721C4.31303 21.2698 4.64376 21.486 5.40587 21.4478L18.5056 20.7739C19.2677 20.7357 19.354 20.3288 19.354 19.8456V8.8332C19.354 8.34998 19.1383 8.08294 18.6782 8.12109L4.98886 8.8332C4.48558 8.87135 4.31303 9.10025 4.31303 9.58347ZM17.2402 10.1811C17.3265 10.5118 17.2402 10.8551 16.8664 10.8933L16.2337 11.0077V19.197C15.6872 19.4514 15.1839 19.604 14.7526 19.604C14.0767 19.604 13.9042 19.4132 13.4009 18.8537L9.27396 13.1186V18.6629L10.5825 18.9173C10.5825 18.9173 10.5825 19.5912 9.53279 19.5912L6.62813 19.7438C6.54185 19.5912 6.62813 19.2225 6.91572 19.1462L7.67784 18.9554V11.6308L6.62813 11.5545C6.54185 11.2239 6.75755 10.7407 7.34711 10.7025L10.4675 10.5118L14.7669 16.3104V11.1857L13.6741 11.0713C13.5878 10.6644 13.9329 10.3592 14.3499 10.321L17.2402 10.1811ZM1.32209 4.59865L13.329 3.82296C14.7957 3.70851 15.1839 3.78481 16.1042 4.38248L19.9292 6.76044C20.5619 7.16736 20.7776 7.28181 20.7776 7.72688V20.7866C20.7776 21.6004 20.4469 22.0836 19.2677 22.1599L5.33397 22.9102C4.44244 22.9484 4.02544 22.8339 3.56529 22.3125L0.732526 19.0699C0.229243 18.4722 0.0135498 18.0271 0.0135498 17.5058V5.89572C0.0135498 5.22176 0.358658 4.67495 1.32209 4.59865Z" fill="black"/>
</g>
<defs>
<clipPath id="clip0_0_1038">
<rect width="80.8614" height="26.6667" fill="white" transform="translate(0.0135498 0.444427)"/>
</clipPath>
</defs>
</svg>
