<svg width="71" height="28" viewBox="0 0 71 28" fill="none" xmlns="http://www.w3.org/2000/svg">
<g style="mix-blend-mode:luminosity" clip-path="url(#clip0_0_1036)">
<path fill-rule="evenodd" clip-rule="evenodd" d="M70.5505 17.4241C67.6307 21.8114 63.0066 20.5384 61.6178 19.5416C61.0268 19.897 59.9904 20.6761 58.6084 20.5861C55.6653 20.3946 54.6113 16.667 54.6113 16.667C54.6325 16.6819 53.7346 16.9416 53.2494 16.937C53.2432 18.0301 52.177 20.6414 49.2996 20.608C46.0707 20.5707 45.4143 16.3073 45.4143 16.3073C45.4143 16.3073 45.093 16.7027 43.8713 17.0966C43.9328 16.2568 43.8878 20.4802 40.0179 20.5423C36.9585 20.5914 36.1326 16.2415 36.1326 16.2415C36.1326 16.2415 35.6019 16.7302 34.5733 16.8996C34.6386 16.0461 34.5324 20.5566 30.662 20.5423C28.0464 20.5327 27.1526 17.8628 27.2221 17.4922C27.3108 17.0199 26.3382 20.6087 23.7975 20.5528C22.7491 20.5255 21.9675 19.8527 21.477 18.9558C20.8204 19.6216 19.8671 20.5528 18.7977 20.5528C16.8781 20.5528 16.0318 19.1298 16.1752 15.0655C16.1874 14.5835 16.1481 14.3938 15.6075 14.3217C15.2829 14.2737 14.9506 14.1829 14.5989 14.135C14.4862 14.4683 13.5303 20.4443 10.2431 20.5578C9.14035 20.5958 8.53735 19.7491 8.04215 19.1208C7.28305 20.0108 6.28099 20.5861 4.85347 20.5861C2.43537 20.5861 0.787842 18.8536 0.787842 16.7164C0.787842 14.5791 2.43537 12.8468 4.85347 12.8468C5.28102 12.8468 5.40104 12.9011 5.79163 13.0021C4.98837 6.52024 6.88535 5.50722 8.54479 5.50722C10.138 5.50722 12.8597 8.78445 9.02996 17.0972C9.88024 19.5767 11.7133 19.4365 12.5941 14.3323C12.7734 13.2948 12.294 11.8947 13.0396 11.6993C14.4026 11.3422 14.5472 12.4137 15.1862 12.5922C15.8619 12.7809 16.2563 12.7624 16.905 12.8825C18.0135 13.0744 18.4461 13.6021 18.311 14.7775C18.1488 16.2648 17.8651 18.4295 18.7301 18.6934C19.3539 18.885 20.4928 17.7385 20.6927 17.1112C20.8925 16.4838 20.9342 16.2691 20.9519 15.809C20.979 14.8256 21.0129 14.1048 21.2021 13.361C21.2831 13.0732 21.3754 12.8827 21.7428 12.8696C22.0451 12.8628 22.5979 12.7821 22.8412 12.95C23.1656 13.166 23.125 13.3852 23.0878 13.962C22.7106 22.1862 25.6139 18.0806 26.4796 14.7933C26.1713 11.076 26.3829 5.57529 29.0112 5.48304C30.3781 5.43506 30.9824 6.40558 31.0488 7.12998C31.2369 9.17596 30.1837 12.5651 28.7987 14.8443C28.0072 19.4948 32.2596 20.4144 32.9397 16.7023C31.8271 16.2335 30.6247 14.3358 31.6031 13.4109C32.1522 12.8919 34.4376 13.6375 34.475 15.2637C35.5961 14.998 35.7457 14.437 35.7613 14.53C35.4531 10.8128 35.7389 5.57534 38.3674 5.48308C39.7341 5.4351 40.3383 6.40562 40.4047 7.13003C40.5928 9.176 39.5396 12.5651 38.1548 14.8444C37.3632 19.4948 41.6157 20.4144 42.2956 16.7024C41.4718 16.5615 39.733 14.543 40.7363 13.411C41.2724 12.8061 43.5495 14.0641 43.8044 15.3176C44.8814 15.0475 45.0276 14.5043 45.0431 14.5958C44.7348 10.8786 45.0206 5.64122 47.6491 5.54896C49.0158 5.50098 49.62 6.4715 49.6865 7.19591C49.8745 9.24188 48.8213 12.6311 47.4363 14.9103C46.6449 19.5608 50.8973 20.4802 51.5774 16.7681C50.4454 16.6011 48.8366 14.4699 50.1314 13.3796C50.6487 12.944 52.6254 14.0748 53.0882 15.3649C53.7311 15.3429 54.1313 15.1464 54.217 15.1266C53.1907 10.7628 53.9547 5.52685 56.7822 5.48315C58.3105 5.45955 59.8045 6.21539 59.1487 10.367C58.5227 14.3281 56.2726 15.9904 56.2779 16.0158C56.4088 16.4904 57.5634 20.4618 60.4709 18.3663C60.3204 18.0643 60.1698 17.7557 60.0855 17.3819C59.6036 15.2043 60.5502 12.7447 63.123 12.3471C64.5971 12.1194 65.9857 12.7555 66.2052 14.1894C66.5664 16.5358 64.1758 18.2351 63.2668 18.6038C62.8596 18.3987 66.9576 20.7281 69.3897 16.06C69.5307 15.7935 69.7007 15.816 69.921 15.9534C70.0765 16.0504 70.9626 16.7944 70.5505 17.4241ZM6.61243 16.1398C6.48868 15.812 6.23473 15.0895 6.14493 14.7764C5.65035 14.3952 5.29734 14.3333 4.66251 14.3333C3.25171 14.3333 2.42134 15.4894 2.42134 16.736C2.42134 17.9825 3.32597 19.1387 4.73677 19.1387C5.95939 19.1387 6.88992 18.4019 7.17381 17.359C6.9751 16.9524 6.77799 16.5787 6.61243 16.1398ZM8.51022 7.22301C7.51892 7.22301 7.18265 9.31888 7.24791 11.1069C7.30563 12.6876 7.80402 14.0793 8.06256 14.7029C8.12821 14.781 8.11602 14.7302 8.17461 14.8131C9.89583 11.4706 9.18192 7.22301 8.51022 7.22301ZM29.1528 7.28885C27.8716 7.15862 27.8798 11.8889 28.0389 12.95C28.7043 12.0065 29.8602 7.54288 29.1528 7.28885ZM38.5087 7.28885C37.2275 7.15862 37.2357 11.8889 37.3949 12.95C38.0602 12.0065 39.2162 7.54288 38.5087 7.28885ZM47.7905 7.35466C46.5092 7.22443 46.5174 11.9548 46.6766 13.0159C47.3419 12.0724 48.4979 7.60867 47.7905 7.35466ZM56.9236 7.01194C54.9274 7.36722 55.3922 13.2661 55.6954 14.3006C58.0468 11.4383 58.0952 6.90443 56.9236 7.01194ZM64.4049 14.3835C64.3034 14.0074 63.7959 13.8064 63.4456 13.8559C62.4433 13.9772 61.4712 15.0836 61.8475 16.768C61.9312 17.1431 62.1409 17.4884 62.1375 17.4769C64.3806 16.1432 64.5713 15.0921 64.4049 14.3835ZM22.1357 11.5676C21.8492 11.5677 21.5692 11.4924 21.331 11.3514C21.0928 11.2104 20.9071 11.0099 20.7974 10.7754C20.6877 10.5408 20.659 10.2827 20.7149 10.0337C20.7707 9.78467 20.9087 9.55593 21.1113 9.37638C21.3138 9.19684 21.5719 9.07457 21.8528 9.02503C22.1338 8.97549 22.425 9.0009 22.6897 9.09807C22.9544 9.19522 23.1806 9.35977 23.3397 9.57088C23.4988 9.78199 23.5838 10.0302 23.5838 10.2841C23.5838 10.4526 23.5464 10.6195 23.4736 10.7753C23.4008 10.931 23.2942 11.0725 23.1597 11.1917C23.0252 11.3109 22.8656 11.4054 22.6899 11.4699C22.5142 11.5344 22.3259 11.5676 22.1357 11.5676Z" fill="#0D0C22"/>
</g>
<defs>
<clipPath id="clip0_0_1036">
<rect width="70.2052" height="26.6667" fill="white" transform="translate(0.787842 0.444427)"/>
</clipPath>
</defs>
</svg>
