<svg width="70" height="28" viewBox="0 0 70 28" fill="none" xmlns="http://www.w3.org/2000/svg">
<g style="mix-blend-mode:luminosity" clip-path="url(#clip0_0_1035)">
<path fill-rule="evenodd" clip-rule="evenodd" d="M43.1393 21.4482C39.1504 24.054 33.3688 25.4443 28.3909 25.4443C21.4111 25.4443 15.1275 23.1563 10.3737 19.3509C10.0002 19.0516 10.3348 18.6438 10.783 18.8768C15.9133 21.5224 22.2567 23.1139 28.8092 23.1139C33.2283 23.1139 38.0897 22.3036 42.5597 20.622C43.2349 20.3678 43.7997 21.0139 43.1393 21.4482Z" fill="#FF9900"/>
<path fill-rule="evenodd" clip-rule="evenodd" d="M44.7977 19.7666C44.2897 19.1893 41.4273 19.4939 40.1425 19.6289C39.7511 19.6713 39.6913 19.3694 40.0439 19.1523C42.3237 17.7302 46.0645 18.1407 46.5008 18.6173C46.937 19.0967 46.3872 22.4201 44.2449 24.0064C43.9162 24.25 43.6025 24.1202 43.7489 23.7972C44.23 22.7326 45.3086 20.3466 44.7977 19.7666Z" fill="#FF9900"/>
<path fill-rule="evenodd" clip-rule="evenodd" d="M40.2323 9.11307V7.73073C40.2323 7.52152 40.4116 7.38117 40.6268 7.38117H47.6095C47.8336 7.38117 48.0129 7.52417 48.0129 7.73073V8.91446C48.0099 9.11307 47.8217 9.3726 47.487 9.78306L43.8687 14.3618C45.2132 14.3326 46.6325 14.5101 47.8516 15.1191C48.1265 15.2568 48.2012 15.4581 48.2221 15.6567V17.1318C48.2221 17.333 47.9711 17.5687 47.7081 17.4469C45.5598 16.4485 42.7063 16.3399 40.3309 17.4575C40.0889 17.574 39.8349 17.341 39.8349 17.1397V15.7388C39.8349 15.5137 39.8379 15.1297 40.0919 14.7881L44.284 9.45999H40.6357C40.4116 9.45999 40.2323 9.31963 40.2323 9.11307Z" fill="black"/>
<path fill-rule="evenodd" clip-rule="evenodd" d="M14.7602 17.7382H12.6358C12.4326 17.725 12.2713 17.5899 12.2563 17.4178V7.75458C12.2563 7.56126 12.4386 7.40767 12.6657 7.40767H14.6467C14.8528 7.41561 15.0172 7.55597 15.0321 7.73075V8.99393H15.0709C15.5879 7.77312 16.5589 7.20376 17.8676 7.20376C19.1973 7.20376 20.0279 7.77312 20.6255 8.99393C21.1394 7.77312 22.3077 7.20376 23.5597 7.20376C24.4501 7.20376 25.4241 7.52948 26.0187 8.26038C26.691 9.07337 26.5536 10.2545 26.5536 11.2899L26.5506 17.3886C26.5506 17.582 26.3683 17.7382 26.1412 17.7382H24.0198C23.8077 17.725 23.6374 17.574 23.6374 17.3886V12.2671C23.6374 11.8593 23.6792 10.8424 23.5776 10.4557C23.4192 9.80692 22.9441 9.62419 22.3286 9.62419C21.8147 9.62419 21.2769 9.92873 21.0588 10.416C20.8406 10.9033 20.8616 11.7189 20.8616 12.2671V17.3886C20.8616 17.582 20.6793 17.7382 20.4522 17.7382H18.3308C18.1156 17.725 17.9483 17.574 17.9483 17.3886L17.9453 12.2671C17.9453 11.1893 18.1455 9.60301 16.6366 9.60301C15.1098 9.60301 15.1695 11.1495 15.1695 12.2671V17.3886C15.1695 17.582 14.9873 17.7382 14.7602 17.7382Z" fill="black"/>
<path fill-rule="evenodd" clip-rule="evenodd" d="M54.0246 7.20376C57.1768 7.20376 58.8829 9.60301 58.8829 12.6537C58.8829 15.6011 56.9975 17.9395 54.0246 17.9395C50.9291 17.9395 49.2439 15.5402 49.2439 12.5504C49.2439 9.5421 50.95 7.20376 54.0246 7.20376ZM54.0425 9.17665C52.4768 9.17665 52.3782 11.0674 52.3782 12.2459C52.3782 13.427 52.3573 15.948 54.0246 15.948C55.6709 15.948 55.7486 13.9142 55.7486 12.6749C55.7486 11.8593 55.7097 10.8847 55.4319 10.1115C55.1928 9.43882 54.7178 9.17665 54.0425 9.17665Z" fill="black"/>
<path fill-rule="evenodd" clip-rule="evenodd" d="M62.9705 17.7382H60.855C60.6429 17.725 60.4726 17.574 60.4726 17.3886L60.4696 7.7228C60.4875 7.54537 60.6638 7.40767 60.879 7.40767H62.848C63.0333 7.41561 63.1856 7.52684 63.2275 7.67778V9.15546H63.2663C63.8609 7.83402 64.6945 7.20376 66.1616 7.20376C67.1148 7.20376 68.044 7.5083 68.6416 8.34247C69.1974 9.11574 69.1974 10.416 69.1974 11.3508V17.4337C69.1734 17.6031 68.9972 17.7382 68.788 17.7382H66.6576C66.4634 17.725 66.302 17.5978 66.2811 17.4337V12.185C66.2811 11.1284 66.4186 9.58182 64.9515 9.58182C64.4346 9.58182 63.9595 9.88901 63.7235 10.3551C63.4247 10.9456 63.3858 11.5335 63.3858 12.185V17.3886C63.3828 17.582 63.1976 17.7382 62.9705 17.7382Z" fill="black"/>
<path fill-rule="evenodd" clip-rule="evenodd" d="M34.6658 13.1224C34.6658 13.856 34.6868 14.4677 34.2684 15.1191C33.9308 15.6488 33.393 15.9745 32.7984 15.9745C31.9827 15.9745 31.5046 15.4237 31.5046 14.6107C31.5046 13.0059 33.1271 12.7146 34.6658 12.7146V13.1224ZM36.8082 17.7117C36.6678 17.8229 36.4646 17.8309 36.3062 17.7567C35.6011 17.2377 35.4726 16.9967 35.0871 16.5015C33.9218 17.5555 33.0942 17.8706 31.5853 17.8706C29.7955 17.8706 28.4061 16.8934 28.4061 14.9364C28.4061 13.4084 29.3384 12.3677 30.671 11.8592C31.8243 11.409 33.4348 11.3296 34.6658 11.2051V10.9615C34.6658 10.514 34.7047 9.98432 34.4059 9.59769C34.1489 9.25078 33.6529 9.10778 33.2137 9.10778C32.404 9.10778 31.6839 9.47587 31.5076 10.2385C31.4717 10.408 31.3313 10.5749 31.1371 10.5828L29.0784 10.3868C28.9051 10.3524 28.7109 10.228 28.7617 9.99227C29.2338 7.7784 31.4927 7.11105 33.5125 7.11105C34.5463 7.11105 35.8969 7.35469 36.7126 8.04851C37.7464 8.90387 37.6478 10.0452 37.6478 11.2872V14.2214C37.6478 15.1033 38.0601 15.4899 38.4486 15.9666C38.583 16.136 38.6129 16.3399 38.4396 16.4671C38.0063 16.7875 37.2355 17.3833 36.8112 17.717L36.8082 17.7117Z" fill="black"/>
<path fill-rule="evenodd" clip-rule="evenodd" d="M6.81526 13.1224C6.81526 13.856 6.83617 14.4677 6.41786 15.1191C6.08022 15.6488 5.54539 15.9745 4.9478 15.9745C4.13209 15.9745 3.65701 15.4237 3.65701 14.6107C3.65701 13.0059 5.27946 12.7146 6.81526 12.7146V13.1224ZM8.9576 17.7117C8.81717 17.8229 8.61399 17.8309 8.45563 17.7567C7.75048 17.2377 7.62498 16.9967 7.23655 16.5015C6.07126 17.5555 5.24659 17.8706 3.7347 17.8706C1.94792 17.8706 0.555542 16.8934 0.555542 14.9364C0.555542 13.4084 1.49076 12.3677 2.82039 11.8592C3.97373 11.409 5.58423 11.3296 6.81526 11.2051V10.9615C6.81526 10.514 6.8541 9.98432 6.5583 9.59769C6.29834 9.25078 5.80235 9.10778 5.36611 9.10778C4.55638 9.10778 3.8333 9.47587 3.65701 10.2385C3.62116 10.408 3.48073 10.5749 3.2895 10.5828L1.22783 10.3868C1.05453 10.3524 0.863298 10.228 0.911105 9.99227C1.38619 7.7784 3.64207 7.11105 5.66192 7.11105C6.69574 7.11105 8.04628 7.35469 8.86199 8.04851C9.89581 8.90387 9.79721 10.0452 9.79721 11.2872V14.2214C9.79721 15.1032 10.2095 15.4899 10.598 15.9665C10.7354 16.136 10.7653 16.3399 10.592 16.4671C10.1587 16.7875 9.38786 17.3833 8.96358 17.717L8.9576 17.7117Z" fill="black"/>
</g>
<defs>
<clipPath id="clip0_0_1035">
<rect width="68.9516" height="26.6667" fill="white" transform="translate(0.555542 0.444397)"/>
</clipPath>
</defs>
</svg>
