<svg width="70" height="28" viewBox="0 0 70 28" fill="none" xmlns="http://www.w3.org/2000/svg">
<g style="mix-blend-mode:luminosity" clip-path="url(#clip0_0_1039)">
<path d="M9.72351 21.5923C8.67678 21.7553 7.61165 21.8041 6.50982 21.9342L3.14908 13.2103V22.3086C2.10236 22.4062 1.14744 22.5364 0.155762 22.6666V5.99997H2.9472L6.76688 15.4565V5.99997H9.72351V21.5923ZM15.5083 12.1035C16.6469 12.1035 18.3915 12.0546 19.4382 12.0546V14.6588C18.1343 14.6588 16.6102 14.6588 15.5083 14.7076V18.5814C17.2346 18.4837 18.9608 18.3534 20.7053 18.3046V20.8109L12.5699 21.3807V5.99997H20.7053V8.60414H15.5083V12.1035V12.1035ZM31.632 8.6042H28.5836V20.5833C27.5919 20.5833 26.6002 20.5833 25.6454 20.6158V8.6042H22.597V5.99997H31.6322L31.632 8.6042V8.6042ZM36.4067 11.9245H40.4285V14.5286H36.4067V20.4369H33.5233V5.99997H41.7324V8.60414H36.4067V11.9245V11.9245ZM46.507 18.1582C48.1782 18.1906 49.8676 18.3048 51.5021 18.386V20.9576C48.8761 20.8111 46.25 20.6648 43.5688 20.6158V5.99997H46.507V18.1582ZM53.9813 21.1367C54.9178 21.1856 55.9095 21.2344 56.8644 21.3319V5.99997H53.9813V21.1367V21.1367ZM69.7379 5.99997L66.0099 13.9264L69.7379 22.6666C68.6359 22.5364 67.5341 22.3574 66.4322 22.1946L64.3204 17.377L62.172 21.8041C61.1066 21.6412 60.0783 21.5923 59.0133 21.4621L62.7963 13.8287L59.3805 5.99997H62.539L64.4672 10.3782L66.5241 5.99997H69.7379V5.99997Z" fill="#D81F26"/>
</g>
<defs>
<clipPath id="clip0_0_1039">
<rect width="69.5784" height="26.6667" fill="white" transform="translate(0.155762 0.444427)"/>
</clipPath>
</defs>
</svg>
