<svg width="62" height="28" viewBox="0 0 62 28" fill="none" xmlns="http://www.w3.org/2000/svg">
<g style="mix-blend-mode:luminosity" clip-path="url(#clip0_0_1040)">
<path fill-rule="evenodd" clip-rule="evenodd" d="M49.978 11.8873C50.2126 12.246 50.2893 12.6541 50.3146 13.1129L50.3479 13.7244V18.0004L50.382 18.6125C50.45 19.6122 51.2819 20.3514 52.4185 20.4143L53.1056 20.4444V13.7244L53.1396 13.1129C53.1678 12.6592 53.2439 12.2434 53.482 11.8822C53.7247 11.5117 54.0732 11.2042 54.4923 10.9908C54.9115 10.7774 55.3866 10.6654 55.87 10.6662C56.3535 10.667 56.8281 10.7804 57.2464 10.9952C57.6647 11.21 58.0119 11.5186 58.253 11.8899C58.4876 12.2486 58.5607 12.6644 58.589 13.1129L58.623 13.7225V18.0004L58.657 18.6125C58.728 19.6173 59.5533 20.3565 60.6936 20.4143L61.3806 20.4444V13.1129C61.3806 11.8165 60.7997 10.5731 59.7656 9.65624C58.7315 8.73935 57.3288 8.22399 55.8661 8.22348C55.0832 8.22275 54.3091 8.3701 53.5956 8.6557C52.8821 8.94129 52.2456 9.35855 51.7286 9.87959C51.2113 9.35875 50.5748 8.9416 49.8613 8.65592C49.1479 8.37024 48.3739 8.2226 47.591 8.22284C46.4457 8.22284 45.3829 8.53084 44.5026 9.06277C43.9654 8.53148 42.7636 8.22284 42.0736 8.22284V20.4444L42.7636 20.4143C43.9176 20.3469 44.7516 19.6276 44.7965 18.6125L44.8334 18.0004V13.7244L44.8674 13.1129C44.8964 12.6515 44.9688 12.246 45.2041 11.8848C45.447 11.5145 45.7953 11.2071 46.2141 10.9934C46.633 10.7797 47.1077 10.6671 47.591 10.6669C48.0747 10.667 48.5498 10.7798 48.9688 10.994C49.3877 11.2082 49.7358 11.5163 49.978 11.8873V11.8873ZM2.77252 20.4149L3.46247 20.4444H13.8045L13.7705 19.8348C13.6771 18.83 12.8742 18.096 11.7368 18.0305L11.0469 18.0004H4.84237L13.1145 10.6663L13.0805 10.0573C13.0269 9.04223 12.19 8.30882 11.0469 8.253L10.3569 8.22541L0.0148926 8.22284L0.0489195 8.83434C0.139417 9.82954 0.953891 10.579 2.08185 10.6367L2.77252 10.6669H8.977L0.704843 18.001L0.73887 18.6125C0.806923 19.6199 1.62719 20.3495 2.77252 20.4143V20.4149ZM39.3667 10.0118C40.007 10.5792 40.515 11.2529 40.8616 11.9943C41.2081 12.7358 41.3865 13.5304 41.3865 14.333C41.3865 15.1355 41.2081 15.9302 40.8616 16.6717C40.515 17.4131 40.007 18.0868 39.3667 18.6542C38.0729 19.7999 36.3188 20.4435 34.49 20.4435C32.6611 20.4435 30.907 19.7999 29.6132 18.6542C26.9208 16.2679 26.9208 12.3981 29.6132 10.0118C30.253 9.44454 31.0126 8.99454 31.8486 8.68749C32.6846 8.38043 33.5807 8.22233 34.4856 8.2222C35.392 8.22164 36.2897 8.37947 37.1272 8.68665C37.9648 8.99383 38.7257 9.44434 39.3667 10.0124V10.0118ZM37.4155 11.7423C38.1911 12.4302 38.6267 13.3628 38.6267 14.3352C38.6267 15.3077 38.1911 16.2403 37.4155 16.9282C36.6394 17.6155 35.5871 18.0016 34.49 18.0016C33.3928 18.0016 32.3405 17.6155 31.5644 16.9282C30.7888 16.2403 30.3532 15.3077 30.3532 14.3352C30.3532 13.3628 30.7888 12.4302 31.5644 11.7423C32.3405 11.055 33.3928 10.6689 34.49 10.6689C35.5871 10.6689 36.6394 11.055 37.4155 11.7423V11.7423ZM20.0148 8.2222C20.9198 8.22241 21.8158 8.38061 22.6518 8.68778C23.4879 8.99495 24.2474 9.44506 24.8871 10.0124C27.5803 12.3981 27.5803 16.2685 24.8871 18.6542C23.5934 19.7999 21.8393 20.4435 20.0104 20.4435C18.1815 20.4435 16.4274 19.7999 15.1337 18.6542C12.4412 16.2679 12.4412 12.3981 15.1337 10.0118C15.7735 9.44454 16.5331 8.99454 17.3691 8.68749C18.2051 8.38043 19.1011 8.22233 20.0061 8.2222H20.0148ZM22.936 11.741C23.7118 12.4289 24.1475 13.3617 24.1475 14.3343C24.1475 15.3069 23.7118 16.2396 22.936 16.9275C22.1599 17.6149 21.1076 18.001 20.0104 18.001C18.9132 18.001 17.8609 17.6149 17.0848 16.9275C16.3093 16.2397 15.8737 15.307 15.8737 14.3346C15.8737 13.3622 16.3093 12.4295 17.0848 11.7417C17.8609 11.0543 18.9132 10.6682 20.0104 10.6682C21.1076 10.6682 22.1599 11.0543 22.936 11.7417V11.741Z" fill="#2D8CFF"/>
</g>
<defs>
<clipPath id="clip0_0_1040">
<rect width="61.4296" height="26.6667" fill="white" transform="translate(0.0148926 0.444427)"/>
</clipPath>
</defs>
</svg>
