<svg width="385" height="362" viewBox="0 0 385 362" fill="none" xmlns="http://www.w3.org/2000/svg">
<mask id="mask0_0_1321" style="mask-type:alpha" maskUnits="userSpaceOnUse" x="23" y="0" width="362" height="362">
<mask id="path-1-outside-1_0_1321" maskUnits="userSpaceOnUse" x="22.7283" y="0.0554199" width="363" height="362" fill="black">
<rect fill="white" x="22.7283" y="0.0554199" width="363" height="362"/>
<path d="M204.245 90.8118L215.594 1.05542L215.505 91.5206L238.025 3.89076L226.676 93.6471L260.013 9.47285L237.493 97.1913L281.115 17.8017L247.689 101.976L300.975 28.7L257.265 108.09L319.24 42.0793L266.042 115.267L335.82 57.5851L273.756 123.507L350.272 75.0402L280.406 132.722L362.418 94.1787L285.903 142.645L372.083 114.646L290.07 153.189L379.087 136.177L292.907 164.176L383.343 158.417L294.326 175.34L384.761 181.011L294.326 186.682L383.343 203.605L292.907 197.935L379.087 225.845L290.07 208.922L372.083 247.465L285.903 219.465L362.418 267.932L280.406 229.389L350.272 287.071L273.756 238.515L335.82 304.526L266.042 246.756L319.24 320.032L257.265 254.021L300.975 333.322L247.689 260.046L281.115 344.221L237.493 264.92L260.013 352.549L226.676 268.375L238.025 358.22L215.505 270.502L215.594 361.055L204.245 271.211L192.896 361.055V270.502L170.376 358.22L181.813 268.375L148.476 352.549L170.996 264.92L127.375 344.221L160.8 260.046L107.514 333.322L151.225 254.021L89.1611 320.032L142.447 246.756L72.6699 304.526L134.734 238.515L58.2179 287.071L128.084 229.389L46.0712 267.932L122.587 219.465L36.407 247.465L118.42 208.922L29.4027 225.845L115.582 197.935L25.1469 203.605L114.164 186.682L23.7283 181.011L114.164 175.34L25.1469 158.417L115.582 164.176L29.4027 136.177L118.42 153.189L36.407 114.646L122.587 142.645L46.0712 94.1787L128.084 132.722L58.2179 75.0402L134.734 123.507L72.6699 57.5851L142.447 115.267L89.1611 42.0793L151.225 108.09L107.514 28.7L160.8 101.976L127.375 17.8017L170.996 97.1913L148.476 9.47285L181.813 93.6471L170.376 3.89076L192.896 91.5206V1.05542L204.245 90.8118Z"/>
</mask>
<path d="M204.245 90.8118L215.594 1.05542L215.505 91.5206L238.025 3.89076L226.676 93.6471L260.013 9.47285L237.493 97.1913L281.115 17.8017L247.689 101.976L300.975 28.7L257.265 108.09L319.24 42.0793L266.042 115.267L335.82 57.5851L273.756 123.507L350.272 75.0402L280.406 132.722L362.418 94.1787L285.903 142.645L372.083 114.646L290.07 153.189L379.087 136.177L292.907 164.176L383.343 158.417L294.326 175.34L384.761 181.011L294.326 186.682L383.343 203.605L292.907 197.935L379.087 225.845L290.07 208.922L372.083 247.465L285.903 219.465L362.418 267.932L280.406 229.389L350.272 287.071L273.756 238.515L335.82 304.526L266.042 246.756L319.24 320.032L257.265 254.021L300.975 333.322L247.689 260.046L281.115 344.221L237.493 264.92L260.013 352.549L226.676 268.375L238.025 358.22L215.505 270.502L215.594 361.055L204.245 271.211L192.896 361.055V270.502L170.376 358.22L181.813 268.375L148.476 352.549L170.996 264.92L127.375 344.221L160.8 260.046L107.514 333.322L151.225 254.021L89.1611 320.032L142.447 246.756L72.6699 304.526L134.734 238.515L58.2179 287.071L128.084 229.389L46.0712 267.932L122.587 219.465L36.407 247.465L118.42 208.922L29.4027 225.845L115.582 197.935L25.1469 203.605L114.164 186.682L23.7283 181.011L114.164 175.34L25.1469 158.417L115.582 164.176L29.4027 136.177L118.42 153.189L36.407 114.646L122.587 142.645L46.0712 94.1787L128.084 132.722L58.2179 75.0402L134.734 123.507L72.6699 57.5851L142.447 115.267L89.1611 42.0793L151.225 108.09L107.514 28.7L160.8 101.976L127.375 17.8017L170.996 97.1913L148.476 9.47285L181.813 93.6471L170.376 3.89076L192.896 91.5206V1.05542L204.245 90.8118Z" stroke="black" stroke-width="1.11111" stroke-miterlimit="10" mask="url(#path-1-outside-1_0_1321)"/>
</mask>
<g mask="url(#mask0_0_1321)">
<rect x="-435.956" y="-20.1208" width="640.459" height="390.473" rx="25" fill="black"/>
</g>
<path d="M53.7303 262.22L79.1231 276.055L53.7303 290.002L39.8394 315.339L25.9484 290.002L0.555645 276.055L25.9484 262.22L39.8394 236.771L53.7303 262.22Z" fill="#B9FF66"/>
<path d="M121.168 136.369L166.543 161.092L121.168 186.014L96.3455 231.29L71.5232 186.014L26.1481 161.092L71.5232 136.369L96.3455 90.8948L121.168 136.369Z" fill="#191A23"/>
</svg>
