<svg width="335" height="287" viewBox="0 0 335 287" fill="none" xmlns="http://www.w3.org/2000/svg">
<g clip-path="url(#clip0_0_974)">
<path d="M173.631 240.741L183.409 237.861L180.556 247.667L183.409 257.445L173.631 254.592L163.825 257.445L166.706 247.667L163.825 237.861L173.631 240.741Z" fill="black" stroke="white" stroke-width="0.555556" stroke-miterlimit="10"/>
</g>
<g clip-path="url(#clip1_0_974)">
<path d="M70.2691 192.394L87.7558 201.922L70.2691 211.526L60.7031 228.974L51.1371 211.526L33.6505 201.922L51.1371 192.394L60.7031 174.869L70.2691 192.394Z" fill="black" stroke="white" stroke-width="0.555556" stroke-miterlimit="10"/>
</g>
<path d="M314.51 216.741C313.454 218.654 311.489 220.038 308.658 220.896C305.826 221.755 302.152 222.079 297.729 221.889C288.885 221.507 277.106 219.069 263.209 214.815C235.42 206.31 199.219 190.564 161.197 169.592C123.175 148.619 90.5457 126.399 68.5275 107.431C57.5167 97.9452 49.1711 89.283 44.1302 82.0053C41.6094 78.3661 39.9242 75.086 39.1399 72.2324C38.3559 69.3801 38.4779 66.9792 39.5332 65.0659C40.5886 63.1527 42.5543 61.7687 45.385 60.9103C48.2171 60.0515 51.8905 59.7271 56.3134 59.9179C65.1582 60.2995 76.9369 62.7377 90.8337 66.9911C118.623 75.4965 154.824 91.2422 192.846 112.215C230.868 133.187 263.497 155.408 285.515 174.376C296.526 183.861 304.872 192.524 309.913 199.801C312.433 203.441 314.119 206.721 314.903 209.574C315.687 212.426 315.565 214.827 314.51 216.741Z" stroke="black" stroke-width="0.555556"/>
<path d="M303.27 237.115C302.215 239.028 300.249 240.412 297.419 241.271C294.587 242.129 290.913 242.454 286.49 242.263C277.645 241.881 265.867 239.443 251.97 235.19C224.181 226.684 187.98 210.939 149.958 189.966C111.936 168.994 79.3064 146.773 57.2883 127.805C46.2775 118.32 37.9319 109.657 32.891 102.38C30.3702 98.7404 28.685 95.4603 27.9006 92.6067C27.1166 89.7544 27.2387 87.3535 28.294 85.4402C29.3493 83.527 31.315 82.143 34.1458 81.2846C36.9779 80.4258 40.6512 80.1015 45.0742 80.2923C53.9189 80.6738 65.6976 83.112 79.5944 87.3654C107.384 95.8708 143.585 111.617 181.607 132.589C219.628 153.562 252.258 175.782 274.276 194.75C285.287 204.236 293.633 212.898 298.673 220.176C301.194 223.815 302.879 227.095 303.664 229.949C304.448 232.801 304.326 235.202 303.27 237.115Z" stroke="black" stroke-width="0.555556"/>
<path d="M292.032 257.49C290.977 259.403 289.011 260.787 286.181 261.645C283.348 262.504 279.675 262.828 275.252 262.638C266.407 262.256 254.629 259.818 240.732 255.565C212.943 247.059 176.742 231.313 138.72 210.341C100.698 189.368 68.0684 167.148 46.0502 148.18C35.0394 138.694 26.6938 130.032 21.6529 122.754C19.1321 119.115 17.4469 115.835 16.6626 112.981C15.8786 110.129 16.0006 107.728 17.056 105.815C18.1113 103.902 20.077 102.518 22.9077 101.659C25.7398 100.801 29.4132 100.476 33.8361 100.667C42.6809 101.049 54.4596 103.487 68.3564 107.74C96.1455 116.245 132.347 131.991 170.369 152.964C208.39 173.936 241.02 196.157 263.038 215.125C274.049 224.61 282.394 233.273 287.435 240.55C289.956 244.19 291.641 247.47 292.426 250.323C293.21 253.175 293.088 255.576 292.032 257.49Z" stroke="black" stroke-width="0.555556"/>
<circle cx="73.9095" cy="58.5" r="8.61111" fill="#B9FF66"/>
<circle cx="234.743" cy="242.111" r="5.55556" fill="#B9FF66"/>
<circle cx="46.1317" cy="36.2778" r="13.0556" fill="black"/>
<path d="M170.839 213.55C167.336 214.747 163.334 212.375 161.942 208.262L140.276 144.783L152.936 140.452L174.624 204.018C176.016 208.088 174.319 212.353 170.839 213.55Z" fill="black"/>
<path d="M168.946 214.333C167.924 214.333 166.879 214.094 165.879 213.593C163.856 212.592 162.246 210.721 161.463 208.414L139.797 144.935C139.71 144.696 139.84 144.413 140.102 144.326L152.762 139.996C152.892 139.952 153.023 139.952 153.132 140.017C153.24 140.083 153.327 140.17 153.371 140.3L175.058 203.866C176.516 208.175 174.689 212.723 170.969 214.007C170.338 214.225 169.642 214.333 168.946 214.333ZM140.885 145.088L162.398 208.11C163.094 210.177 164.53 211.874 166.314 212.745C167.749 213.441 169.294 213.572 170.686 213.093C173.906 211.983 175.472 207.979 174.167 204.171L152.631 141.062L140.885 145.088Z" fill="black"/>
<path d="M150.695 85.6565L109.734 114.882L93.7893 131.443L87.5245 142.52L87.5027 142.607C86.2628 144.522 86.9807 148.939 89.3082 153.444C91.5923 157.883 94.8117 160.974 97.074 161.148L97.0088 161.191L109.038 162.497L131.552 158.906L179.344 141.802L238.751 151.986L239.164 152.008C224.242 149.222 204.098 129.267 189.459 101.042C174.841 72.8389 170.186 44.9622 176.603 31.2089H176.581L151.021 84.9602L150.695 85.6565Z" fill="#B9FF66"/>
<path d="M249.037 150.779C263.719 143.152 260.88 108.572 242.696 73.5426C224.512 38.5137 197.869 16.3007 183.187 23.9284C168.505 31.5562 171.344 66.1362 189.528 101.165C207.712 136.194 234.355 158.407 249.037 150.779Z" fill="white"/>
<path d="M242.58 152.77C236.184 152.77 228.484 149.201 220.196 142.259C208.906 132.814 197.834 118.256 189.024 101.238C175.689 75.4722 170.186 49.0535 175.015 33.9292C176.625 28.8805 179.322 25.3551 182.998 23.4618C190.307 19.7188 200.596 22.896 211.995 32.4276C223.285 41.8722 234.357 56.4307 243.167 73.4484C256.523 99.2142 262.027 125.633 257.176 140.757C255.566 145.806 252.869 149.331 249.192 151.225C247.213 152.269 244.994 152.77 242.58 152.77ZM189.655 22.896C187.414 22.896 185.326 23.353 183.455 24.3323C179.996 26.095 177.473 29.4463 175.95 34.2556C171.187 49.1624 176.668 75.2981 189.894 100.846C207.905 135.6 234.313 157.84 248.779 150.419C252.238 148.657 254.761 145.305 256.284 140.496C261.048 125.589 255.566 99.4535 242.34 73.9054C226.656 43.6567 204.643 22.896 189.655 22.896Z" fill="black"/>
<path d="M242.579 152.769C236.184 152.769 228.484 149.201 220.196 142.259C208.906 132.814 197.834 118.255 189.024 101.238C175.689 75.4721 170.186 49.0534 175.015 33.9291C176.625 28.8803 179.322 25.355 182.998 23.4617C187.893 20.9373 194.288 21.5684 201.488 25.2679C208.384 28.8151 215.845 35.1042 223.111 43.4389C223.285 43.6348 223.263 43.9394 223.067 44.1135C222.871 44.2876 222.567 44.2658 222.393 44.07C207.644 27.1394 192.722 19.5664 183.455 24.3322C179.996 26.0949 177.473 29.4462 175.95 34.2555C171.186 49.1622 176.668 75.298 189.894 100.846C205.556 131.073 227.592 151.855 242.558 151.855C244.798 151.855 246.887 151.398 248.757 150.419C252.216 148.657 254.739 145.305 256.262 140.496C261.026 125.589 255.544 99.4534 242.318 73.9052C238.381 66.2886 233.944 59.1291 229.18 52.6223C229.027 52.4047 229.071 52.1 229.288 51.9477C229.506 51.7954 229.811 51.8389 229.963 52.0565C234.77 58.6068 239.208 65.8099 243.189 73.47C256.523 99.214 262.027 125.633 257.176 140.757C255.566 145.806 252.869 149.331 249.192 151.224C247.213 152.269 244.994 152.769 242.579 152.769Z" fill="black"/>
<path d="M215.724 106.188C219.125 104.421 218.471 96.4169 214.263 88.3104C210.055 80.2038 203.886 75.0646 200.485 76.8317C197.084 78.5988 197.738 86.6029 201.946 94.7095C206.154 102.816 212.323 107.955 215.724 106.188Z" fill="#B9FF66"/>
<path d="M214.236 107.027C210.494 107.027 205.274 102.195 201.51 94.9053C198.378 88.8556 197.095 82.6317 198.248 79.0411C198.661 77.7789 199.335 76.8866 200.271 76.4079C203.969 74.5146 210.299 79.6721 214.693 88.1374C217.825 94.1872 219.109 100.411 217.956 104.002C217.542 105.264 216.868 106.156 215.933 106.635C215.411 106.896 214.845 107.027 214.236 107.027ZM201.967 76.9519C201.51 76.9519 201.075 77.039 200.706 77.2348C199.988 77.6048 199.466 78.3012 199.139 79.324C198.073 82.6752 199.313 88.6379 202.337 94.4701C206.34 102.195 212.365 107.396 215.476 105.786C216.194 105.416 216.716 104.72 217.042 103.697C218.108 100.324 216.846 94.383 213.844 88.5509C210.32 81.783 205.274 76.9519 201.967 76.9519Z" fill="#B9FF66"/>
<path d="M239.273 144.652C233.661 144.652 226.918 141.519 219.652 135.447C209.776 127.178 200.074 114.425 192.374 99.5404C180.693 76.9953 175.885 53.8626 180.105 40.6098C181.519 36.1704 183.89 33.0802 187.132 31.4046C194.571 27.5963 205.513 31.9922 217.172 43.4606C217.368 43.6564 217.368 43.9393 217.172 44.1352C216.977 44.331 216.694 44.331 216.498 44.1352C205.143 32.9714 194.593 28.6191 187.567 32.2533C184.565 33.7984 182.368 36.6927 181.019 40.8927C176.864 53.9062 181.65 76.7559 193.222 99.1051C206.905 125.546 226.156 143.695 239.251 143.695C241.209 143.695 243.015 143.281 244.668 142.454C247.67 140.909 249.867 138.015 251.216 133.815C255.37 120.801 250.585 97.9517 239.012 75.6025C235.51 68.8564 231.594 62.5238 227.374 56.8005C227.222 56.5828 227.266 56.2782 227.483 56.1258C227.701 55.9735 228.005 56.017 228.157 56.2346C232.421 62.0232 236.358 68.3777 239.882 75.1673C251.564 97.7124 256.371 120.845 252.151 134.098C250.737 138.537 248.366 141.627 245.125 143.303C243.341 144.195 241.383 144.652 239.273 144.652Z" fill="black"/>
<path d="M109.06 162.954C109.039 162.954 109.017 162.954 109.017 162.954L96.9874 161.648C96.9221 161.648 96.8569 161.627 96.7916 161.583C94.3118 161.191 91.1794 158.058 88.8953 153.662C86.459 149.027 85.7411 144.5 87.0681 142.368L87.0898 142.302L93.3547 131.204C93.3764 131.16 93.3982 131.139 93.4199 131.117L109.365 114.556C109.387 114.534 109.408 114.513 109.43 114.491L150.282 85.3302L176.124 30.9914C176.19 30.8826 176.277 30.7955 176.407 30.752C176.538 30.7085 176.668 30.7085 176.777 30.7738C177.016 30.8826 177.125 31.1655 177.016 31.4049C170.469 45.4411 175.646 73.3396 189.872 100.803C204.12 128.31 223.981 148.678 239.273 151.486C239.512 151.529 239.686 151.747 239.665 152.008C239.643 152.247 239.425 152.421 239.186 152.443L238.773 152.421C238.751 152.421 238.729 152.421 238.708 152.421L179.409 142.259L131.727 159.32C131.705 159.32 131.662 159.342 131.64 159.342L109.126 162.932C109.104 162.954 109.082 162.954 109.06 162.954ZM97.3354 160.734L109.06 161.997L131.466 158.406L179.235 141.323C179.322 141.301 179.387 141.279 179.474 141.301L232.856 150.441C218.434 144.108 201.575 125.415 189.067 101.26C176.647 77.2784 171.1 52.9271 174.145 37.5417L151.13 85.8525C151.087 85.9178 151.043 85.9831 150.978 86.0266L110.061 115.253L94.1813 131.726L87.9164 142.825C87.9164 142.846 87.8947 142.868 87.8947 142.868C86.7635 144.631 87.5249 148.983 89.7219 153.227C91.8755 157.383 94.9861 160.517 97.1179 160.669C97.2049 160.669 97.2702 160.691 97.3354 160.734Z" fill="black"/>
<path d="M150.76 85.4825L176.58 31.1872H176.602C170.185 44.9406 174.862 72.8172 189.458 101.02C204.098 129.267 224.241 149.222 239.207 151.964L238.794 151.943L179.473 141.78L178.103 141.541C171.207 140.322 162.006 131.356 155.415 118.56C148.65 105.438 147.453 92.3592 150.455 86.1354L150.76 85.4825Z" fill="white"/>
<path d="M239.207 152.443C239.185 152.443 239.207 152.443 239.207 152.443L238.772 152.421C238.75 152.421 238.729 152.421 238.707 152.421L179.387 142.259L178.016 142.019C170.729 140.735 161.484 131.4 154.98 118.8C147.606 104.48 147.236 91.7281 150.02 85.9395L150.347 85.2866L176.167 31.0131C176.233 30.9043 176.32 30.8172 176.45 30.7737C176.581 30.7302 176.711 30.7302 176.82 30.7954C177.059 30.9043 177.168 31.1872 177.059 31.4265C170.511 45.4628 175.689 73.3612 189.915 100.824C204.163 128.331 224.024 148.7 239.316 151.507C239.555 151.551 239.729 151.768 239.708 152.03C239.642 152.247 239.446 152.443 239.207 152.443ZM174.101 37.5416L151.195 85.7001L150.869 86.353C148.106 92.098 148.911 104.937 155.828 118.343C162.202 130.703 171.186 139.843 178.19 141.062L179.561 141.301L232.834 150.441C218.411 144.108 201.553 125.415 189.045 101.26C176.624 77.2783 171.077 52.927 174.101 37.5416Z" fill="black"/>
<path d="M108.407 162.889C108.386 162.889 108.364 162.889 108.364 162.889L96.9653 161.67C96.9001 161.67 96.8348 161.648 96.7696 161.605C94.2897 161.213 91.1573 158.079 88.8733 153.683C86.4587 149.026 85.7408 144.5 87.0678 142.367L87.0895 142.302L93.3544 131.204C93.4849 130.964 93.7677 130.899 94.007 131.03C94.2462 131.16 94.3115 131.443 94.181 131.682L87.9161 142.824C87.9161 142.846 87.8944 142.868 87.8944 142.868C86.7632 144.631 87.5246 148.983 89.7216 153.226C91.8752 157.383 94.9858 160.517 97.1176 160.669C97.1829 160.669 97.2699 160.691 97.3134 160.734L108.451 161.931C108.712 161.953 108.908 162.192 108.864 162.453C108.842 162.693 108.647 162.889 108.407 162.889Z" fill="black"/>
<path d="M109.169 162.41C105.471 162.149 100.293 156.904 96.5302 149.658C92.5494 141.976 91.614 134.033 94.0504 131.204L87.5462 142.52L87.5027 142.607C86.2628 144.522 86.9807 148.94 89.3082 153.444C91.5923 157.884 94.8117 160.974 97.074 161.148L97.0088 161.191L109.169 162.41Z" fill="white"/>
<path d="M109.169 162.889C109.147 162.889 109.147 162.889 109.125 162.889C109.038 162.889 108.929 162.867 108.842 162.867L96.9653 161.67C96.9001 161.67 96.8348 161.648 96.7696 161.605C94.2897 161.213 91.1573 158.079 88.8733 153.684C86.4587 149.027 85.7408 144.5 87.0678 142.367L87.0895 142.302L92.8105 132.335C93.0281 131.77 93.3109 131.269 93.6589 130.856C93.8112 130.66 94.094 130.638 94.2897 130.769C94.4855 130.921 94.5508 131.182 94.4203 131.4L93.6154 132.771C92.332 136.231 93.5936 143.02 96.9001 149.375C100.489 156.317 105.384 161.387 108.886 161.844L109.147 161.866C109.408 161.888 109.604 162.127 109.582 162.388C109.604 162.693 109.408 162.889 109.169 162.889ZM97.3134 160.734L105.623 161.583C102.425 159.537 98.9014 155.316 96.0952 149.875C93.3761 144.631 92.0274 139.19 92.245 135.273L87.9161 142.824C87.9161 142.846 87.8944 142.868 87.8944 142.868C86.7632 144.631 87.5246 148.983 89.7216 153.227C91.8752 157.383 94.9858 160.517 97.1176 160.669C97.1829 160.669 97.2699 160.691 97.3134 160.734Z" fill="black"/>
<path d="M130.747 158.993L131.704 158.797C126.527 159.885 118.348 152.051 112.584 140.931C106.689 129.571 105.579 118.234 109.756 114.882L109.212 115.426L94.0936 131.138C91.6138 133.924 92.5274 141.91 96.5299 149.636C100.38 157.078 105.84 162.388 109.56 162.366L130.747 158.993Z" fill="black"/>
<path d="M109.539 162.867C105.58 162.867 100.076 157.535 96.0953 149.875C92.0493 142.041 91.0269 133.859 93.7243 130.834L108.56 115.427C108.821 115.078 109.125 114.774 109.452 114.513C109.647 114.36 109.93 114.382 110.104 114.556C110.278 114.752 110.278 115.035 110.104 115.209L109.256 116.101C106.232 120.149 107.733 130.507 113.019 140.714C118.718 151.725 126.68 159.276 131.553 158.362L131.618 158.341C131.879 158.297 132.118 158.449 132.183 158.71C132.227 158.972 132.075 159.211 131.814 159.276C131.792 159.276 131.77 159.276 131.748 159.298L130.856 159.472H130.835L109.647 162.845C109.604 162.845 109.56 162.867 109.539 162.867ZM107.298 118.125L94.4421 131.487C92.0493 134.185 93.1369 142.063 96.9655 149.44C100.707 156.665 105.993 161.888 109.539 161.909L128.246 158.928C123.199 157.144 116.978 150.419 112.171 141.171C107.603 132.357 105.841 123.391 107.298 118.125Z" fill="black"/>
<path d="M200.488 76.8213C197.073 78.5622 197.573 86.6358 201.924 94.6876C209.211 108.158 215.019 106.569 215.693 106.33C215.715 106.33 215.715 106.352 215.693 106.352L203.185 116.428C199.509 111.27 196.007 105.525 192.788 99.3228C189.72 93.3819 187.132 87.4627 185.087 81.7177L200.488 76.8213Z" fill="black"/>
<path d="M203.185 116.906C203.164 116.906 203.142 116.906 203.12 116.906C202.99 116.885 202.881 116.819 202.794 116.71C199.031 111.422 195.528 105.634 192.374 99.5622C189.351 93.7301 186.74 87.7892 184.652 81.9135C184.608 81.783 184.608 81.6524 184.674 81.5436C184.739 81.4348 184.826 81.3477 184.956 81.3042L200.357 76.4078C200.597 76.3425 200.858 76.4513 200.945 76.6907C201.032 76.9301 200.945 77.1912 200.727 77.3C199.988 77.67 199.444 78.4099 199.118 79.498C198.052 82.9146 199.357 88.9643 202.381 94.5135C209.494 107.658 214.975 106.156 215.563 105.938C215.78 105.851 216.041 105.96 216.15 106.156C216.259 106.352 216.215 106.635 216.041 106.787L203.49 116.797C203.403 116.863 203.294 116.906 203.185 116.906ZM185.718 82.0223C187.784 87.7021 190.308 93.4472 193.223 99.1052C196.268 104.981 199.661 110.574 203.294 115.731L214.149 106.983C211.669 106.874 206.992 105.024 201.51 94.9052C198.334 89.0513 197.029 82.871 198.182 79.1498C198.334 78.671 198.509 78.2576 198.726 77.8659L185.718 82.0223Z" fill="black"/>
<path d="M264.847 45.7763C274.791 40.552 278.637 28.2866 273.438 18.3807C268.238 8.47472 255.961 4.6795 246.016 9.90377C236.072 15.128 232.226 27.3935 237.425 37.2994C242.625 47.2054 254.902 51.0006 264.847 45.7763Z" fill="black"/>
<path d="M246.169 23.3528C247.126 22.0471 248.54 21.2419 250.15 21.0678C251.368 20.9373 252.499 21.1984 253.565 21.8513C254.109 22.1777 254.588 22.5912 255.045 23.0917C255.371 22.5041 255.762 21.9818 256.219 21.5466C257.111 20.6761 258.177 20.1756 259.373 20.045C260.983 19.871 262.549 20.3497 263.767 21.416C264.964 22.4606 265.725 23.9839 265.921 25.7031C266.117 27.4658 265.638 29.1632 264.42 31.0347C263.332 32.7103 261.679 34.4513 259.765 36.4969C259.112 37.1932 258.373 37.9767 257.611 38.8036C257.416 39.0212 257.133 39.1735 256.828 39.1953C256.524 39.2388 256.241 39.1518 255.98 38.9777C255.045 38.3248 254.153 37.7155 253.37 37.1932C251.064 35.6264 249.062 34.2772 247.627 32.8844C246.017 31.3393 245.19 29.7725 244.995 28.0098C244.821 26.2906 245.234 24.6368 246.169 23.3528Z" fill="white"/>
<path d="M321.263 46.8844C328.543 39.6013 328.543 27.7931 321.263 20.51C313.982 13.2269 302.179 13.2269 294.899 20.51C287.619 27.7931 287.619 39.6013 294.899 46.8844C302.179 54.1675 313.982 54.1675 321.263 46.8844Z" fill="#B9FF66"/>
<path d="M308.077 52.8183C297.549 52.8183 288.956 44.2442 288.956 33.6898C288.956 23.1571 297.527 14.5613 308.077 14.5613C318.627 14.5613 327.198 23.1354 327.198 33.6898C327.198 44.2224 318.627 52.8183 308.077 52.8183ZM308.077 15.5188C298.071 15.5188 289.914 23.6576 289.914 33.6898C289.914 43.7001 298.049 51.8608 308.077 51.8608C318.084 51.8608 326.241 43.7219 326.241 33.6898C326.241 23.6794 318.105 15.5188 308.077 15.5188Z" fill="#B9FF66"/>
<path d="M313.124 35.5395C312.08 35.5395 311.166 36.04 310.557 36.8234L304.27 34.3644C304.27 34.2773 304.292 34.212 304.292 34.125C304.292 33.9727 304.27 33.8203 304.248 33.668L310.687 30.6867C311.275 31.3613 312.145 31.7965 313.124 31.8183C314.907 31.8183 316.387 30.3602 316.387 28.554C316.387 26.7478 314.929 25.268 313.124 25.268C311.34 25.268 309.861 26.726 309.861 28.5323C309.861 28.6846 309.882 28.8369 309.904 28.9892L303.465 31.9706C302.878 31.296 302.008 30.8608 301.029 30.839C299.245 30.839 297.766 32.297 297.766 34.1032C297.766 35.9095 299.224 37.3892 301.029 37.3892C302.073 37.3892 302.987 36.8887 303.596 36.1053L309.883 38.5644C309.883 38.6514 309.861 38.7167 309.861 38.8038C309.861 40.61 311.318 42.0898 313.124 42.0898C314.907 42.0898 316.387 40.6317 316.387 38.8255C316.365 37.0193 314.907 35.5613 313.124 35.5395Z" fill="black"/>
<path d="M313.371 105.996C321.908 100.068 324.052 88.3792 318.161 79.8882C312.27 71.3971 300.574 69.3193 292.037 75.2471C283.5 81.175 281.355 92.8638 287.246 101.355C293.137 109.846 304.834 111.924 313.371 105.996Z" fill="black"/>
<path d="M298.007 99.5404L295.266 84.6772C295.135 83.9156 295.831 83.2845 296.571 83.4803L312.777 88.072C313.603 88.3114 313.799 89.3777 313.125 89.9L299.638 100.172C299.051 100.65 298.159 100.324 298.007 99.5404Z" fill="white"/>
<path d="M302.52 166.878C313.062 161.744 317.473 149.085 312.373 138.603C307.272 128.121 294.591 123.786 284.048 128.921C273.506 134.055 269.095 146.714 274.195 157.196C279.296 167.678 291.977 172.013 302.52 166.878Z" fill="#B9FF66"/>
<path d="M293.177 169.526C290.914 169.526 288.608 169.178 286.368 168.416C280.886 166.588 276.449 162.758 273.882 157.579C271.315 152.421 270.923 146.567 272.772 141.083C276.601 129.789 288.913 123.63 300.246 127.395C305.728 129.223 310.166 133.053 312.732 138.233C315.299 143.39 315.691 149.244 313.842 154.728C310.753 163.781 302.248 169.526 293.177 169.526ZM293.394 127.265C284.715 127.265 276.579 132.749 273.642 141.41C271.88 146.654 272.25 152.247 274.708 157.165C277.166 162.105 281.408 165.783 286.651 167.524C297.484 171.114 309.252 165.239 312.906 154.445C314.668 149.2 314.299 143.608 311.841 138.69C309.382 133.75 305.141 130.072 299.898 128.331C297.745 127.591 295.548 127.265 293.394 127.265Z" fill="black"/>
<path d="M304.097 144.478C303.88 149.766 294.939 162.127 292.808 165.021C292.59 165.326 292.133 165.304 291.937 164.978C290.589 162.802 286.129 155.49 283.802 149.571C282.866 147.22 282.279 145.088 282.344 143.586C282.584 137.58 287.652 132.901 293.656 133.14C299.66 133.423 304.337 138.472 304.097 144.478Z" fill="black"/>
<path d="M296.739 147.57C298.684 145.624 298.684 142.469 296.739 140.523C294.794 138.577 291.64 138.577 289.694 140.523C287.749 142.469 287.749 145.624 289.694 147.57C291.64 149.516 294.794 149.516 296.739 147.57Z" fill="#B9FF66"/>
<defs>
<clipPath id="clip0_0_974">
<rect width="20" height="20" fill="white" transform="translate(163.632 237.667)"/>
</clipPath>
<clipPath id="clip1_0_974">
<rect width="39.0699" height="39.0699" fill="white" transform="translate(60.7031 174.333) rotate(45)"/>
</clipPath>
</defs>
</svg>
