<svg width="275" height="220" viewBox="0 0 275 220" fill="none" xmlns="http://www.w3.org/2000/svg">
<path d="M187.5 111.166C187.5 112.432 186.891 113.696 185.671 114.947C184.451 116.2 182.637 117.422 180.276 118.594C175.555 120.939 168.707 123.058 160.221 124.84C143.255 128.404 119.802 130.611 93.8889 130.611C67.9754 130.611 44.5232 128.404 27.5565 124.84C19.0709 123.058 12.2223 120.939 7.50181 118.594C5.14107 117.422 3.3269 116.2 2.10646 114.947C0.887001 113.696 0.277778 112.432 0.277778 111.166C0.277778 109.901 0.887001 108.637 2.10646 107.386C3.3269 106.133 5.14107 104.911 7.50181 103.739C12.2223 101.394 19.0709 99.2751 27.5565 97.4926C44.5232 93.9286 67.9754 91.7221 93.8889 91.7221C119.802 91.7221 143.255 93.9286 160.221 97.4926C168.707 99.2751 175.555 101.394 180.276 103.739C182.637 104.911 184.451 106.133 185.671 107.386C186.891 108.637 187.5 109.901 187.5 111.166Z" stroke="black" stroke-width="0.555556"/>
<path d="M187.5 125.055C187.5 126.321 186.891 127.584 185.671 128.836C184.451 130.089 182.637 131.311 180.276 132.483C175.555 134.828 168.707 136.947 160.221 138.729C143.255 142.293 119.802 144.5 93.8889 144.5C67.9754 144.5 44.5232 142.293 27.5565 138.729C19.0709 136.947 12.2223 134.828 7.50181 132.483C5.14107 131.311 3.3269 130.089 2.10646 128.836C0.887001 127.584 0.277778 126.321 0.277778 125.055C0.277778 123.79 0.887001 122.526 2.10646 121.275C3.3269 120.022 5.14107 118.8 7.50181 117.627C12.2223 115.283 19.0709 113.164 27.5565 111.382C44.5232 107.818 67.9754 105.611 93.8889 105.611C119.802 105.611 143.255 107.818 160.221 111.382C168.707 113.164 175.555 115.283 180.276 117.627C182.637 118.8 184.451 120.022 185.671 121.275C186.891 122.526 187.5 123.79 187.5 125.055Z" stroke="black" stroke-width="0.555556"/>
<path d="M187.5 138.944C187.5 140.21 186.891 141.473 185.671 142.725C184.451 143.978 182.637 145.2 180.276 146.372C175.555 148.717 168.707 150.836 160.221 152.618C143.255 156.182 119.802 158.389 93.8889 158.389C67.9754 158.389 44.5232 156.182 27.5565 152.618C19.0709 150.836 12.2223 148.717 7.50181 146.372C5.14107 145.2 3.3269 143.978 2.10646 142.725C0.887001 141.473 0.277778 140.21 0.277778 138.944C0.277778 137.679 0.887001 136.415 2.10646 135.163C3.3269 133.911 5.14107 132.689 7.50181 131.516C12.2223 129.172 19.0709 127.053 27.5565 125.27C44.5232 121.706 67.9754 119.5 93.8889 119.5C119.802 119.5 143.255 121.706 160.221 125.27C168.707 127.053 175.555 129.172 180.276 131.516C182.637 132.689 184.451 133.911 185.671 135.163C186.891 136.415 187.5 137.679 187.5 138.944Z" stroke="black" stroke-width="0.555556"/>
<path d="M140.191 37.905L140.284 38.408L140.655 38.0559L166.84 13.2093L151.301 45.7904L151.08 46.2522L151.588 46.1854L187.376 41.4751L155.654 58.7002L155.204 58.9443L155.654 59.1884L187.376 76.4135L151.588 71.7032L151.08 71.6364L151.301 72.0982L166.84 104.679L140.655 79.8327L140.284 79.4806L140.191 79.9836L133.611 115.476L127.032 79.9836L126.938 79.4806L126.567 79.8327L100.383 104.679L115.922 72.0982L116.142 71.6364L115.635 71.7032L79.8464 76.4135L111.568 59.1884L112.018 58.9443L111.568 58.7002L79.8464 41.4751L115.635 46.1854L116.142 46.2522L115.922 45.7904L100.383 13.2093L126.567 38.0559L126.938 38.408L127.032 37.905L133.611 2.41272L140.191 37.905Z" stroke="black" stroke-width="0.555556"/>
<path d="M153.889 99.222L163.772 124.256L189.506 116.374L176.096 139.709L198.302 154.915L171.697 158.979L173.655 185.822L153.889 167.555L134.123 185.822L136.081 158.979L109.476 154.915L131.682 139.709L118.272 116.374L144.006 124.256L153.889 99.222Z" fill="#D9D9D9"/>
<path d="M62.3303 170.946L75.0746 147.555L87.9213 170.946L111.26 183.741L87.9213 196.537L75.0746 219.927L62.3303 196.537L38.8889 183.741L62.3303 170.946Z" fill="#B9FF66"/>
<circle cx="84.7222" cy="104.5" r="34.4444" fill="black" stroke="black" stroke-width="0.555556"/>
<ellipse cx="73.3334" cy="96.9998" rx="5.55556" ry="11.1111" fill="white"/>
<ellipse cx="96.1111" cy="96.9998" rx="5.55556" ry="11.1111" fill="white"/>
</svg>
